<?xml version="1.0" encoding="utf-8"?>
<!-- Generator: Adobe Illustrator 19.1.0, SVG Export Plug-In . SVG Version: 6.00 Build 0)  -->
<svg version="1.1" id="Capa_1" xmlns="http://www.w3.org/2000/svg" xmlns:xlink="http://www.w3.org/1999/xlink" x="0px" y="0px"
	 viewBox="-49 141 512 512" style="enable-background:new -49 141 512 512;" xml:space="preserve">
<style type="text/css">
	.st0{fill:#CA2E3D;}
</style>
<path class="st0" d="M415.5,308.2h-46.2l-99.9-99.9c6.1-11.3,4.5-25.6-5-35.2c-11.6-11.6-30.5-11.6-42.2,0
	c-11.6,11.6-11.6,30.6,0,42.2c9.5,9.6,23.9,11.1,35.2,5l87.8,87.8H68.7l87.8-87.8c11.3,6.1,25.6,4.5,35.2-5
	c11.6-11.6,11.6-30.5,0-42.2c-11.6-11.6-30.5-11.6-42.2,0c-9.6,9.6-11.1,23.9-5,35.2l-99.9,99.9H-1.5c-26.1,0-47.5,15.8-47.5,35.1
	c0,16.4,15.4,30.1,36,34l19.7,205c2.9,26,26.7,47.1,52.8,47.1h295.1c26.1,0,49.8-21.2,52.8-47.1l19.7-205
	c20.6-3.8,35.9-17.6,35.9-34C463,324.1,441.6,308.2,415.5,308.2z M207,579.6c-55,0-99.5-44.5-99.5-99.5s44.5-99.5,99.5-99.5
	c55,0,99.5,44.5,99.5,99.5S261.9,579.6,207,579.6z"/>
</svg>
